<mxfile host="app.diagrams.net" modified="2023-10-14T20:37:44.712Z" agent="Mozilla/5.0 (Windows NT 10.0; Win64; x64) AppleWebKit/537.36 (KHTML, like Gecko) Chrome/117.0.0.0 Safari/537.36" etag="5NlxUIxbXGlCmOoK1wH1" version="22.0.4" type="device">
  <diagram name="Page-1" id="QYPEfyLWqAeBeu1MuNEp">
    <mxGraphModel dx="995" dy="873" grid="0" gridSize="10" guides="1" tooltips="1" connect="1" arrows="1" fold="1" page="0" pageScale="1" pageWidth="850" pageHeight="1100" math="0" shadow="0">
      <root>
        <mxCell id="0" />
        <mxCell id="1" parent="0" />
        <mxCell id="coRXqsKyqHvni2aprEl1-1" value="&lt;font face=&quot;Lucida Console&quot;&gt;Return Address&lt;/font&gt;" style="rounded=1;whiteSpace=wrap;html=1;" parent="1" vertex="1">
          <mxGeometry x="200" y="520" width="120" height="40" as="geometry" />
        </mxCell>
        <mxCell id="coRXqsKyqHvni2aprEl1-2" value="&lt;font face=&quot;Lucida Console&quot;&gt;$rbp&lt;/font&gt;" style="rounded=1;whiteSpace=wrap;html=1;" parent="1" vertex="1">
          <mxGeometry x="200" y="480" width="120" height="40" as="geometry" />
        </mxCell>
        <mxCell id="coRXqsKyqHvni2aprEl1-3" value="&lt;font face=&quot;Lucida Console&quot;&gt;main()&lt;/font&gt;" style="text;html=1;strokeColor=none;fillColor=none;align=center;verticalAlign=middle;whiteSpace=wrap;rounded=0;" parent="1" vertex="1">
          <mxGeometry x="80" y="505" width="80" height="30" as="geometry" />
        </mxCell>
        <mxCell id="coRXqsKyqHvni2aprEl1-4" value="" style="shape=curlyBracket;whiteSpace=wrap;html=1;rounded=1;flipH=1;labelPosition=right;verticalLabelPosition=middle;align=left;verticalAlign=middle;size=0.5;" parent="1" vertex="1">
          <mxGeometry x="280" y="620" width="30" height="80" as="geometry" />
        </mxCell>
        <mxCell id="coRXqsKyqHvni2aprEl1-5" value="" style="shape=curlyBracket;whiteSpace=wrap;html=1;rounded=1;labelPosition=left;verticalLabelPosition=middle;align=right;verticalAlign=middle;" parent="1" vertex="1">
          <mxGeometry x="160" y="480" width="30" height="80" as="geometry" />
        </mxCell>
        <mxCell id="coRXqsKyqHvni2aprEl1-6" value="&lt;font face=&quot;Lucida Console&quot;&gt;Return Address&lt;/font&gt;" style="rounded=1;whiteSpace=wrap;html=1;" parent="1" vertex="1">
          <mxGeometry x="200" y="440" width="120" height="40" as="geometry" />
        </mxCell>
        <mxCell id="coRXqsKyqHvni2aprEl1-7" value="&lt;font face=&quot;Lucida Console&quot;&gt;$rbp&lt;/font&gt;" style="rounded=1;whiteSpace=wrap;html=1;" parent="1" vertex="1">
          <mxGeometry x="200" y="400" width="120" height="40" as="geometry" />
        </mxCell>
        <mxCell id="coRXqsKyqHvni2aprEl1-8" value="" style="shape=curlyBracket;whiteSpace=wrap;html=1;rounded=1;labelPosition=left;verticalLabelPosition=middle;align=right;verticalAlign=middle;" parent="1" vertex="1">
          <mxGeometry x="160" y="400" width="30" height="80" as="geometry" />
        </mxCell>
        <mxCell id="coRXqsKyqHvni2aprEl1-9" value="&lt;font face=&quot;Lucida Console&quot;&gt;init()&lt;/font&gt;" style="text;html=1;strokeColor=none;fillColor=none;align=center;verticalAlign=middle;whiteSpace=wrap;rounded=0;" parent="1" vertex="1">
          <mxGeometry x="80" y="425" width="80" height="30" as="geometry" />
        </mxCell>
        <mxCell id="coRXqsKyqHvni2aprEl1-12" value="&lt;font face=&quot;Lucida Console&quot;&gt;main()&lt;/font&gt;" style="text;html=1;strokeColor=none;fillColor=none;align=center;verticalAlign=middle;whiteSpace=wrap;rounded=0;" parent="1" vertex="1">
          <mxGeometry x="350" y="605" width="80" height="30" as="geometry" />
        </mxCell>
        <mxCell id="coRXqsKyqHvni2aprEl1-13" value="" style="shape=curlyBracket;whiteSpace=wrap;html=1;rounded=1;labelPosition=left;verticalLabelPosition=middle;align=right;verticalAlign=middle;" parent="1" vertex="1">
          <mxGeometry x="440" y="560" width="30" height="120" as="geometry" />
        </mxCell>
        <mxCell id="coRXqsKyqHvni2aprEl1-16" value="&lt;font face=&quot;Lucida Console&quot;&gt;generate_&lt;br&gt;code()&lt;/font&gt;" style="text;html=1;strokeColor=none;fillColor=none;align=center;verticalAlign=middle;whiteSpace=wrap;rounded=0;" parent="1" vertex="1">
          <mxGeometry x="360" y="425" width="80" height="30" as="geometry" />
        </mxCell>
        <mxCell id="coRXqsKyqHvni2aprEl1-18" value="&lt;font face=&quot;Lucida Console&quot;&gt;random&lt;/font&gt;&lt;br&gt;&lt;font face=&quot;Courier New&quot; style=&quot;font-size: 9px;&quot;&gt;rnd&lt;/font&gt;" style="rounded=1;whiteSpace=wrap;html=1;" parent="1" vertex="1">
          <mxGeometry x="480" y="380" width="80" height="60" as="geometry" />
        </mxCell>
        <mxCell id="coRXqsKyqHvni2aprEl1-20" value="&lt;font face=&quot;Lucida Console&quot;&gt;1000d&lt;/font&gt;&lt;br&gt;&lt;font face=&quot;Courier New&quot; style=&quot;font-size: 9px;&quot;&gt;mod&lt;/font&gt;" style="rounded=1;whiteSpace=wrap;html=1;" parent="1" vertex="1">
          <mxGeometry x="560" y="380" width="80" height="60" as="geometry" />
        </mxCell>
        <mxCell id="coRXqsKyqHvni2aprEl1-21" value="&lt;font face=&quot;Lucida Console&quot;&gt;123d&lt;/font&gt;&lt;br&gt;&lt;font face=&quot;Courier New&quot; style=&quot;font-size: 9px;&quot;&gt;c&lt;/font&gt;" style="rounded=1;whiteSpace=wrap;html=1;" parent="1" vertex="1">
          <mxGeometry x="480" y="320" width="80" height="60" as="geometry" />
        </mxCell>
        <mxCell id="coRXqsKyqHvni2aprEl1-23" value="&lt;font style=&quot;font-family: &amp;quot;Lucida Console&amp;quot;; font-size: 11px;&quot;&gt;remainder = final code&lt;/font&gt;&lt;br&gt;&lt;font face=&quot;Courier New&quot; style=&quot;font-size: 9px;&quot;&gt;auth_code&lt;/font&gt;" style="rounded=1;whiteSpace=wrap;html=1;fillColor=#d5e8d4;strokeColor=#82b366;opacity=40;" parent="1" vertex="1">
          <mxGeometry x="560" y="320" width="80" height="60" as="geometry" />
        </mxCell>
        <mxCell id="coRXqsKyqHvni2aprEl1-24" value="&lt;font face=&quot;Lucida Console&quot;&gt;Return Address&lt;/font&gt;" style="rounded=1;whiteSpace=wrap;html=1;" parent="1" vertex="1">
          <mxGeometry x="480" y="620" width="160" height="60" as="geometry" />
        </mxCell>
        <mxCell id="coRXqsKyqHvni2aprEl1-25" value="&lt;font face=&quot;Lucida Console&quot;&gt;$rbp&lt;/font&gt;" style="rounded=1;whiteSpace=wrap;html=1;" parent="1" vertex="1">
          <mxGeometry x="480" y="560" width="160" height="60" as="geometry" />
        </mxCell>
        <mxCell id="coRXqsKyqHvni2aprEl1-26" value="" style="shape=curlyBracket;whiteSpace=wrap;html=1;rounded=1;labelPosition=left;verticalLabelPosition=middle;align=right;verticalAlign=middle;size=0.3333333333333333;" parent="1" vertex="1">
          <mxGeometry x="440" y="320" width="30" height="240" as="geometry" />
        </mxCell>
        <mxCell id="coRXqsKyqHvni2aprEl1-27" value="&lt;font face=&quot;Lucida Console&quot;&gt;Return Address&lt;/font&gt;" style="rounded=1;whiteSpace=wrap;html=1;" parent="1" vertex="1">
          <mxGeometry x="480" y="500" width="160" height="60" as="geometry" />
        </mxCell>
        <mxCell id="coRXqsKyqHvni2aprEl1-28" value="&lt;font face=&quot;Lucida Console&quot;&gt;$rbp&lt;/font&gt;" style="rounded=1;whiteSpace=wrap;html=1;" parent="1" vertex="1">
          <mxGeometry x="480" y="440" width="160" height="60" as="geometry" />
        </mxCell>
        <mxCell id="coRXqsKyqHvni2aprEl1-29" value="&lt;font face=&quot;Lucida Console&quot;&gt;main()&lt;/font&gt;" style="text;html=1;strokeColor=none;fillColor=none;align=center;verticalAlign=middle;whiteSpace=wrap;rounded=0;" parent="1" vertex="1">
          <mxGeometry x="650" y="605" width="80" height="30" as="geometry" />
        </mxCell>
        <mxCell id="coRXqsKyqHvni2aprEl1-30" value="" style="shape=curlyBracket;whiteSpace=wrap;html=1;rounded=1;labelPosition=left;verticalLabelPosition=middle;align=right;verticalAlign=middle;" parent="1" vertex="1">
          <mxGeometry x="740" y="560" width="30" height="120" as="geometry" />
        </mxCell>
        <mxCell id="coRXqsKyqHvni2aprEl1-31" value="&lt;font face=&quot;Lucida Console&quot;&gt;Return Address&lt;/font&gt;" style="rounded=1;whiteSpace=wrap;html=1;" parent="1" vertex="1">
          <mxGeometry x="780" y="620" width="160" height="60" as="geometry" />
        </mxCell>
        <mxCell id="coRXqsKyqHvni2aprEl1-32" value="&lt;font face=&quot;Lucida Console&quot;&gt;$rbp&lt;/font&gt;" style="rounded=1;whiteSpace=wrap;html=1;" parent="1" vertex="1">
          <mxGeometry x="780" y="560" width="160" height="60" as="geometry" />
        </mxCell>
        <mxCell id="coRXqsKyqHvni2aprEl1-33" value="&lt;font face=&quot;Lucida Console&quot;&gt;configure_&lt;br&gt;username()&lt;/font&gt;" style="text;html=1;strokeColor=none;fillColor=none;align=center;verticalAlign=middle;whiteSpace=wrap;rounded=0;" parent="1" vertex="1">
          <mxGeometry x="660" y="425" width="80" height="30" as="geometry" />
        </mxCell>
        <mxCell id="coRXqsKyqHvni2aprEl1-34" value="&lt;font face=&quot;Lucida Console&quot;&gt;Return Address&lt;/font&gt;" style="rounded=1;whiteSpace=wrap;html=1;" parent="1" vertex="1">
          <mxGeometry x="780" y="500" width="160" height="60" as="geometry" />
        </mxCell>
        <mxCell id="coRXqsKyqHvni2aprEl1-35" value="&lt;font face=&quot;Lucida Console&quot;&gt;$rbp&lt;/font&gt;" style="rounded=1;whiteSpace=wrap;html=1;" parent="1" vertex="1">
          <mxGeometry x="780" y="440" width="160" height="60" as="geometry" />
        </mxCell>
        <mxCell id="coRXqsKyqHvni2aprEl1-36" value="&lt;font face=&quot;Lucida Console&quot;&gt;username[16]&lt;/font&gt;" style="rounded=1;whiteSpace=wrap;html=1;fillColor=none;" parent="1" vertex="1">
          <mxGeometry x="780" y="320" width="160" height="120" as="geometry" />
        </mxCell>
        <mxCell id="coRXqsKyqHvni2aprEl1-37" value="" style="shape=curlyBracket;whiteSpace=wrap;html=1;rounded=1;labelPosition=left;verticalLabelPosition=middle;align=right;verticalAlign=middle;" parent="1" vertex="1">
          <mxGeometry x="740" y="320" width="30" height="240" as="geometry" />
        </mxCell>
        <mxCell id="coRXqsKyqHvni2aprEl1-38" value="" style="shape=curlyBracket;whiteSpace=wrap;html=1;rounded=1;labelPosition=left;verticalLabelPosition=middle;align=right;verticalAlign=middle;" parent="1" vertex="1">
          <mxGeometry x="1030" y="560" width="30" height="120" as="geometry" />
        </mxCell>
        <mxCell id="coRXqsKyqHvni2aprEl1-39" value="&lt;font face=&quot;Lucida Console&quot;&gt;Return Address&lt;/font&gt;" style="rounded=1;whiteSpace=wrap;html=1;" parent="1" vertex="1">
          <mxGeometry x="1070" y="620" width="160" height="60" as="geometry" />
        </mxCell>
        <mxCell id="coRXqsKyqHvni2aprEl1-40" value="&lt;font face=&quot;Lucida Console&quot;&gt;$rbp&lt;/font&gt;" style="rounded=1;whiteSpace=wrap;html=1;" parent="1" vertex="1">
          <mxGeometry x="1070" y="560" width="160" height="60" as="geometry" />
        </mxCell>
        <mxCell id="coRXqsKyqHvni2aprEl1-41" value="&lt;font face=&quot;Lucida Console&quot;&gt;login()&lt;/font&gt;" style="text;html=1;strokeColor=none;fillColor=none;align=center;verticalAlign=middle;whiteSpace=wrap;rounded=0;" parent="1" vertex="1">
          <mxGeometry x="950" y="425" width="80" height="30" as="geometry" />
        </mxCell>
        <mxCell id="coRXqsKyqHvni2aprEl1-42" value="&lt;font face=&quot;Lucida Console&quot;&gt;Return Address&lt;/font&gt;" style="rounded=1;whiteSpace=wrap;html=1;" parent="1" vertex="1">
          <mxGeometry x="1070" y="500" width="160" height="60" as="geometry" />
        </mxCell>
        <mxCell id="coRXqsKyqHvni2aprEl1-43" value="&lt;font face=&quot;Lucida Console&quot;&gt;$rbp&lt;/font&gt;" style="rounded=1;whiteSpace=wrap;html=1;" parent="1" vertex="1">
          <mxGeometry x="1070" y="440" width="160" height="60" as="geometry" />
        </mxCell>
        <mxCell id="coRXqsKyqHvni2aprEl1-45" value="" style="shape=curlyBracket;whiteSpace=wrap;html=1;rounded=1;labelPosition=left;verticalLabelPosition=middle;align=right;verticalAlign=middle;" parent="1" vertex="1">
          <mxGeometry x="1030" y="320" width="30" height="240" as="geometry" />
        </mxCell>
        <mxCell id="coRXqsKyqHvni2aprEl1-46" value="&lt;font face=&quot;Lucida Console&quot;&gt;main()&lt;/font&gt;" style="text;html=1;strokeColor=none;fillColor=none;align=center;verticalAlign=middle;whiteSpace=wrap;rounded=0;" parent="1" vertex="1">
          <mxGeometry x="950" y="605" width="80" height="30" as="geometry" />
        </mxCell>
        <mxCell id="coRXqsKyqHvni2aprEl1-49" value="" style="rounded=1;whiteSpace=wrap;html=1;fillColor=none;strokeColor=#82b366;opacity=30;" parent="1" vertex="1">
          <mxGeometry x="860" y="320" width="80" height="60" as="geometry" />
        </mxCell>
        <mxCell id="coRXqsKyqHvni2aprEl1-47" value="" style="rounded=1;whiteSpace=wrap;html=1;fillColor=none;strokeColor=#82b366;opacity=80;" parent="1" vertex="1">
          <mxGeometry x="560" y="320" width="80" height="60" as="geometry" />
        </mxCell>
        <mxCell id="coRXqsKyqHvni2aprEl1-50" value="&lt;font face=&quot;Lucida Console&quot;&gt;username[16]&lt;/font&gt;" style="rounded=1;whiteSpace=wrap;html=1;fillColor=none;" parent="1" vertex="1">
          <mxGeometry x="1070" y="320" width="160" height="120" as="geometry" />
        </mxCell>
        <mxCell id="coRXqsKyqHvni2aprEl1-51" value="" style="rounded=1;whiteSpace=wrap;html=1;fillColor=none;strokeColor=#82b366;opacity=30;" parent="1" vertex="1">
          <mxGeometry x="1150" y="320" width="80" height="60" as="geometry" />
        </mxCell>
      </root>
    </mxGraphModel>
  </diagram>
</mxfile>
